<svg xmlns="http://www.w3.org/2000/svg" viewBox="0 0 128 128" role="img" aria-label="敬礼的唠叨 favicon">
  <defs>
    <linearGradient id="paper" x1="22" y1="8" x2="106" y2="120" gradientUnits="userSpaceOnUse">
      <stop offset="0" stop-color="#fffaf0"/>
      <stop offset="0.58" stop-color="#f7f2e8"/>
      <stop offset="1" stop-color="#efe2cc"/>
    </linearGradient>
    <linearGradient id="seal" x1="28" y1="20" x2="104" y2="110" gradientUnits="userSpaceOnUse">
      <stop offset="0" stop-color="#16806b"/>
      <stop offset="1" stop-color="#0d4f43"/>
    </linearGradient>
    <filter id="lift" x="-20%" y="-20%" width="140%" height="140%">
      <feDropShadow dx="0" dy="10" stdDeviation="9" flood-color="#3c2a14" flood-opacity="0.18"/>
    </filter>
    <pattern id="grain" width="16" height="16" patternUnits="userSpaceOnUse">
      <path d="M2 3h1M11 5h1M6 12h1M14 13h1" stroke="#4d4332" stroke-opacity="0.16" stroke-linecap="round"/>
    </pattern>
  </defs>

  <rect width="128" height="128" rx="30" fill="url(#paper)"/>
  <rect width="128" height="128" rx="30" fill="url(#grain)" opacity="0.42"/>
  <rect x="13" y="13" width="102" height="102" rx="26" fill="none" stroke="#126b5a" stroke-opacity="0.22" stroke-width="3"/>

  <g filter="url(#lift)">
    <rect x="29" y="25" width="70" height="78" rx="22" fill="url(#seal)"/>
    <path d="M43 51h42M50 64h28M50 78h28" stroke="#fffaf0" stroke-width="8" stroke-linecap="round"/>
    <path d="M64 39v52" stroke="#fffaf0" stroke-width="8" stroke-linecap="round"/>
    <path d="M48 92h32" stroke="#fffaf0" stroke-width="8" stroke-linecap="round"/>
  </g>

  <circle cx="96" cy="33" r="7" fill="#bd6f20"/>
  <circle cx="96" cy="33" r="3" fill="#fffaf0" fill-opacity="0.72"/>

  <style>
    @media (prefers-color-scheme: dark) {
      rect:first-of-type { fill: #1f2723; }
    }
  </style>
</svg>
